<svg width="65" height="36" fill="none" xmlns="http://www.w3.org/2000/svg"><path d="M61.134 1.883c.308-.659.616-1.32 1.082-1.883.448.094.383.534.315.987-.031.215-.064.433-.042.619.174-.047.241-.198.309-.35.08-.178.159-.357.41-.365.376.2.226.597.075.999-.08.21-.16.423-.165.61.192-.077.29-.215.381-.342.12-.167.226-.316.517-.284.797.088.473.807.173 1.472-.109.242-.215.477-.262.672.16-.006.256-.075.353-.144.13-.093.26-.186.546-.124.373.413.07.801-.198 1.147-.102.13-.198.254-.252.372.058.062.164.075.27.089.106.013.212.027.27.088.01.543-.198.868-.406 1.194-.118.185-.235.37-.314.594l.079.015c.152.026.304.052.281.253-.097.282-.299.46-.5.64-.194.172-.388.345-.488.61.048.07.121.117.194.164.127.082.254.163.254.372-.289.457-.454.937-.615 1.404-.216.627-.425 1.231-.913 1.722-.02.131.038.184.097.237.067.06.134.121.083.3-.109.307-.34.492-.572.677-.15.12-.3.24-.417.394-.02.131.038.184.096.237.067.06.134.121.083.3-.428.186-.645.581-.862.977-.143.259-.285.519-.487.719.252.017.383.156.36.447-.275.33-.383.72-.488 1.103-.137.5-.27.988-.771 1.309.123-.01.107.118.09.247a.471.471 0 000 .2c-.205.096-.396.202-.54.357.104.105.102.315.09.535-.306.04-.379.31-.451.581-.073.27-.145.54-.449.58-.032.137.007.203.045.269.04.066.078.132.045.268-.43-.01-.505.331-.45.804-.453.146-.68.518-.906.89-.191.315-.383.63-.711.807v.536c-.427.079-.606.405-.784.73-.16.292-.32.583-.656.698-.101.163-.143.385-.184.607-.025.129-.049.258-.085.376a2.05 2.05 0 01-.239.095c-.206.071-.413.143-.48.353.508 1.058 1.696.821 2.947.572.458-.09.924-.184 1.368-.215 1.102-.08 1.239.528 1.376 1.134.07.307.139.613.333.831.038.159 0 .243-.037.327a.457.457 0 00-.053.208c.138-.037.178.024.218.084.031.047.063.095.141.096-.019.354.082.649.182.94.084.244.167.485.178.757.056 1.328-.406 2.151-1.618 2.768-.231-.005-.34.092-.474.21a1.346 1.346 0 01-.336.237c-1.687.066-3.344-.723-4.824-1.427a72.724 72.724 0 00-.571-.27c-.156-.267-.256-.553-.351-.826-.166-.475-.319-.91-.727-1.14-.427-.237-1.032-.341-1.61-.44a9.578 9.578 0 01-.907-.185c-2.675-.737-4.306-1.942-6.025-3.483-.704-.63-1.357-1.366-2.017-2.11-1.372-1.545-2.774-3.125-4.728-3.874-.231-.09-.51-.188-.784-.284a17.572 17.572 0 01-.924-.342c-1.216-.521-4.316-.803-4.316-.803s-.985.246-1.168-.447c.489-.103.962-.36 1.432-.616.54-.293 1.076-.584 1.625-.635.644-.06 1.082.235 1.575.568.208.14.426.286.673.415.627.33 1.31.578 1.978.803.965.327 1.832.777 2.584 1.167.474.246.903.468 1.282.622.647.259 1.744.562 2.247.445.783-.181 1.581-1.84 2.032-2.775l.126-.262c.367-.747.748-2.013 1.042-2.991.233-.774.411-1.369.487-1.386.57.176.473.945.388 1.62-.045.352-.086.678-.028.881.171-.196.29-.444.41-.691.171-.357.343-.713.669-.916.72.165.436.863.197 1.452-.093.23-.18.444-.197.602.326-.206.539-.524.752-.841.218-.326.436-.651.776-.856.38.65-.011 1.18-.37 1.667-.235.32-.456.62-.44.923 1.058-1.318 1.93-2.77 2.79-4.203.723-1.203 1.437-2.393 2.247-3.479.33-.443.706-.816 1.096-1.204.32-.318.65-.645.971-1.028.493-.587.885-1.254 1.277-1.921.334-.568.667-1.135 1.062-1.652.348-.458.755-.86 1.158-1.257.46-.455.914-.903 1.269-1.422.32-.47.563-.99.806-1.512zM5.221 12.906H3.18c-1.015 0-1.798-.267-2.35-.8C.275 11.575 0 10.808 0 9.807v-6.03c0-1.001.276-1.768.828-2.3.553-.533 1.336-.8 2.351-.8h2.042c1.002 0 1.78.273 2.332.818.552.533.828 1.294.828 2.283v.57c0 .28-.135.419-.404.419H6.339c-.27 0-.405-.14-.405-.419v-.456c0-.406-.083-.691-.25-.856-.167-.178-.456-.266-.867-.266H3.564c-.398 0-.687.088-.867.266-.167.165-.25.45-.25.856v5.8c0 .406.083.698.25.875.18.165.47.248.867.248h1.253c.41 0 .7-.083.867-.248.167-.177.25-.469.25-.875V8.493c0-.14-.07-.209-.212-.209H4.566c-.27 0-.404-.133-.404-.4V6.592c0-.266.135-.399.404-.399h3.372c.296 0 .443.146.443.437v3.177c0 .989-.276 1.756-.828 2.3-.553.533-1.33.8-2.332.8zM17.03.677h1.62c.282 0 .423.126.423.38v8.749c0 .989-.282 1.756-.848 2.3-.552.533-1.329.8-2.33.8h-2.12c-1.015 0-1.799-.267-2.35-.8-.553-.532-.83-1.299-.83-2.3v-8.73c0-.266.135-.4.405-.4h1.638c.27 0 .405.134.405.4V9.69c0 .406.083.698.25.875.18.165.469.248.867.248h1.33c.41 0 .7-.083.867-.248.18-.177.27-.469.27-.875V1.076c0-.266.134-.4.404-.4zm4.135 8.729v.38c0 .99.283 1.757.848 2.302.565.545 1.349.818 2.35.818h2.1c1.003 0 1.786-.273 2.351-.818.566-.545.848-1.313.848-2.301V9.14c0-.76-.154-1.382-.462-1.864-.296-.494-.668-.837-1.118-1.027-.848-.342-1.817-.558-2.91-.647-1.053-.088-1.58-.43-1.58-1.027v-.361c0-.57.09-.95.27-1.141.193-.203.553-.304 1.08-.304h.751c.514 0 .867.088 1.06.266.192.177.289.513.289 1.008v.114c0 .266.134.4.404.4h1.638c.27 0 .405-.134.405-.4v-.361c0-.99-.283-1.756-.848-2.302-.565-.545-1.355-.817-2.37-.817h-1.927c-1.002 0-1.785.272-2.35.817-.566.546-.848 1.313-.848 2.302v.665c0 .786.148 1.433.443 1.94.308.495.687.83 1.137 1.008.45.165.931.304 1.445.419.527.101 1.015.17 1.464.209.45.038.822.158 1.118.361.308.19.462.47.462.837v.228c0 .52-.103.875-.308 1.065-.193.19-.54.286-1.04.286h-.906c-.514 0-.867-.09-1.06-.267-.193-.177-.289-.507-.289-.989v-.152c0-.266-.135-.4-.404-.4H21.57c-.27 0-.405.134-.405.4zm10.387.381v-.38c0-.267.134-.4.404-.4h1.638c.27 0 .404.133.404.4v.151c0 .482.097.812.29.99.192.177.545.266 1.06.266h.905c.5 0 .847-.095 1.04-.286.206-.19.308-.545.308-1.065v-.228a.923.923 0 00-.462-.837c-.295-.203-.668-.323-1.117-.361a13.91 13.91 0 01-1.465-.21 11.339 11.339 0 01-1.445-.418c-.45-.177-.828-.513-1.137-1.008-.295-.507-.443-1.154-.443-1.94v-.665c0-.99.283-1.756.848-2.302.565-.545 1.349-.817 2.35-.817h1.927c1.015 0 1.805.272 2.37.817.565.546.848 1.313.848 2.302v.361c0 .266-.135.4-.405.4h-1.637c-.27 0-.405-.134-.405-.4v-.114c0-.495-.096-.83-.289-1.008-.193-.178-.546-.266-1.06-.266h-.751c-.527 0-.886.101-1.08.304-.179.19-.269.57-.269 1.141v.361c0 .596.527.939 1.58 1.027 1.092.09 2.062.305 2.91.647.449.19.822.533 1.117 1.027.308.482.462 1.103.462 1.864v.647c0 .988-.282 1.756-.847 2.3-.566.546-1.35.819-2.351.819h-2.1c-1.002 0-1.786-.273-2.35-.818-.566-.545-.848-1.313-.848-2.301z" fill="#192B3F"/><path d="M44.79 12.506V1.076c0-.266-.136-.4-.405-.4h-1.638c-.27 0-.405.134-.405.4v11.43c0 .267.135.4.405.4h1.638c.27 0 .404-.133.404-.4z" fill="#192B3F"/></svg>